<svg xmlns="http://www.w3.org/2000/svg" width="14" height="14" viewBox="0 0 14 14">
  <path id="search" d="M-4.166,13.834a.569.569,0,0,0,0-.8L-8.255,8.942A5.461,5.461,0,0,0-7.027,5.487,5.493,5.493,0,0,0-12.513,0,5.493,5.493,0,0,0-18,5.487a5.493,5.493,0,0,0,5.487,5.487A5.461,5.461,0,0,0-9.058,9.745l4.089,4.089a.567.567,0,0,0,.4.166A.567.567,0,0,0-4.166,13.834Zm-4-8.348a4.356,4.356,0,0,1-4.351,4.351,4.356,4.356,0,0,1-4.351-4.351,4.356,4.356,0,0,1,4.351-4.351A4.356,4.356,0,0,1-8.162,5.487Z" transform="translate(18)" fill="#fff"/>
</svg>
